<?xml version="1.0" standalone="no"?>
<!DOCTYPE svg PUBLIC "-//W3C//DTD SVG 20010904//EN"
 "http://www.w3.org/TR/2001/REC-SVG-20010904/DTD/svg10.dtd">
<svg version="1.0" xmlns="http://www.w3.org/2000/svg"
 width="72.000000pt" height="72.000000pt" viewBox="0 0 72.000000 72.000000"
 preserveAspectRatio="xMidYMid meet">
<metadata>
Created by potrace 1.11, written by Peter Selinger 2001-2013
</metadata>
<g transform="translate(0.000000,72.000000) scale(0.100000,-0.100000)"
fill="#000000" stroke="none">
<path d="M241 701 c-186 -70 -286 -275 -221 -457 96 -273 452 -329 628 -98
136 177 69 442 -138 541 -75 36 -192 42 -269 14z m68 -197 c38 -31 39 -53 5
-93 l-26 -31 32 -30 c56 -53 31 -100 -75 -138 -67 -25 -135 -21 -154 7 -12 19
-11 31 8 99 13 42 25 84 27 93 3 13 -1 15 -19 12 -27 -5 -57 19 -57 46 0 31
78 59 172 60 47 1 62 -3 87 -25z m358 -3 c7 -9 13 -22 13 -29 0 -17 -82 -93
-157 -144 -89 -61 -82 -73 24 -42 46 13 59 14 79 3 13 -7 24 -18 24 -25 0 -14
-77 -54 -104 -54 -9 0 -26 -5 -36 -10 -10 -6 -38 -11 -61 -12 -35 -1 -46 3
-66 26 -46 53 -26 96 73 161 104 68 108 75 46 75 -40 0 -53 4 -62 19 -27 52
-9 60 130 52 62 -3 88 -8 97 -20z"/>
<path d="M191 459 c-19 -7 -21 -12 -11 -24 13 -16 36 -8 60 19 10 14 10 16 -6
15 -11 0 -30 -5 -43 -10z"/>
<path d="M200 334 c-9 -3 -21 -19 -28 -35 l-11 -31 31 6 c39 8 100 45 92 57
-5 9 -55 10 -84 3z"/>
</g>
</svg>
